<svg width="41" height="41" viewBox="0 0 41 41" fill="none" xmlns="http://www.w3.org/2000/svg">
<path d="M11.7329 0.773682C5.68138 0.773682 0.773987 5.68108 0.773987 11.7326V29.2668C0.773987 35.3183 5.68138 40.2257 11.7329 40.2257H29.2671C35.3186 40.2257 40.226 35.3183 40.226 29.2668V11.7326C40.226 5.68108 35.3186 0.773682 29.2671 0.773682H11.7329ZM33.6507 5.15724C34.8606 5.15724 35.8425 6.13916 35.8425 7.34902C35.8425 8.55889 34.8606 9.5408 33.6507 9.5408C32.4408 9.5408 31.4589 8.55889 31.4589 7.34902C31.4589 6.13916 32.4408 5.15724 33.6507 5.15724ZM20.5 9.5408C26.5515 9.5408 31.4589 14.4482 31.4589 20.4997C31.4589 26.5512 26.5515 31.4586 20.5 31.4586C14.4485 31.4586 9.54111 26.5512 9.54111 20.4997C9.54111 14.4482 14.4485 9.5408 20.5 9.5408ZM20.5 13.9244C18.7561 13.9244 17.0837 14.6171 15.8505 15.8502C14.6174 17.0834 13.9247 18.7558 13.9247 20.4997C13.9247 22.2436 14.6174 23.9161 15.8505 25.1492C17.0837 26.3823 18.7561 27.0751 20.5 27.0751C22.2439 27.0751 23.9164 26.3823 25.1495 25.1492C26.3826 23.9161 27.0754 22.2436 27.0754 20.4997C27.0754 18.7558 26.3826 17.0834 25.1495 15.8502C23.9164 14.6171 22.2439 13.9244 20.5 13.9244Z" fill="#7525B2"/>
</svg>
