<svg width="99" height="62" viewBox="0 0 99 62" fill="none" xmlns="http://www.w3.org/2000/svg">
<path d="M0.346 60V1.452H17.894L26.258 42.78H26.422L34.868 1.452H52.334V60H41.51V13.26H41.346L30.932 60H21.748L11.334 13.26H11.17V60H0.346ZM98.1092 18.836H86.7932C86.7932 14.49 84.8252 8.996 80.0692 8.996C74.3292 8.996 72.0332 14.9 72.0332 29.496C72.0332 43.6 73.3452 52.456 80.1512 52.456C82.9392 52.456 87.4492 49.422 87.4492 43.108V37.122H79.6592V28.43H98.7652V60H90.0732V54.588H89.9092C87.1212 59.18 83.1032 61.148 77.6092 61.148C63.0952 61.148 60.2252 50.324 60.2252 30.07C60.2252 10.39 64.8172 0.303996 79.9052 0.303996C92.8612 0.303996 98.1092 6.946 98.1092 18.836Z" fill="white"/>
</svg>
