<svg width="42" height="41" viewBox="0 0 42 41" fill="none" xmlns="http://www.w3.org/2000/svg">
<g clip-path="url(#clip0_374_40)">
<path d="M7.71464 0.997314C4.05915 0.997314 1.04797 4.00849 1.04797 7.66398V34.3307C1.04797 37.9861 4.05915 40.9973 7.71464 40.9973H34.3813C38.0368 40.9973 41.048 37.9861 41.048 34.3307V7.66398C41.048 4.00849 38.0368 0.997314 34.3813 0.997314H7.71464ZM21.048 9.8862H25.4924C25.4924 12.1195 28.7613 14.3306 29.9369 14.3306V18.7751C28.5924 18.7751 26.9769 18.1843 25.4924 17.1866V25.4418C25.4924 29.1173 22.5013 32.1084 18.8258 32.1084C15.1502 32.1084 12.1591 29.1173 12.1591 25.4418C12.1591 21.7662 15.1502 18.7751 18.8258 18.7751V23.2195C17.5991 23.2195 16.6035 24.2173 16.6035 25.4418C16.6035 26.6662 17.5991 27.664 18.8258 27.664C20.0524 27.664 21.048 26.6662 21.048 25.4418V9.8862Z" fill="#7525B2"/>
</g>
<defs>
<clipPath id="clip0_374_40">
<rect width="41" height="41" fill="white" transform="translate(0.773987 -0.000244141)"/>
</clipPath>
</defs>
</svg>
