<svg width="26" height="26" viewBox="0 0 26 26" fill="none" xmlns="http://www.w3.org/2000/svg">
<path d="M21.8125 4.13726C19.475 1.78726 16.3625 0.499756 13.05 0.499756C6.225 0.499756 0.6625 6.06226 0.6625 12.8873C0.6625 15.0748 1.2375 17.1998 2.3125 19.0748L0.5625 25.4998L7.125 23.7748C8.9375 24.7623 10.975 25.2873 13.05 25.2873C19.875 25.2873 25.4375 19.7248 25.4375 12.8998C25.4375 9.58726 24.15 6.47476 21.8125 4.13726ZM13.05 23.1873C11.2 23.1873 9.3875 22.6873 7.8 21.7498L7.425 21.5248L3.525 22.5498L4.5625 18.7498L4.3125 18.3623C3.2875 16.7248 2.7375 14.8248 2.7375 12.8873C2.7375 7.21226 7.3625 2.58726 13.0375 2.58726C15.7875 2.58726 18.375 3.66226 20.3125 5.61226C22.2625 7.56226 23.325 10.1498 23.325 12.8998C23.35 18.5748 18.725 23.1873 13.05 23.1873ZM18.7 15.4873C18.3875 15.3373 16.8625 14.5873 16.5875 14.4748C16.3 14.3748 16.1 14.3248 15.8875 14.6248C15.675 14.9373 15.0875 15.6373 14.9125 15.8373C14.7375 16.0498 14.55 16.0748 14.2375 15.9123C13.925 15.7623 12.925 15.4248 11.75 14.3748C10.825 13.5498 10.2125 12.5373 10.025 12.2248C9.85 11.9123 10 11.7498 10.1625 11.5873C10.3 11.4498 10.475 11.2248 10.625 11.0498C10.775 10.8748 10.8375 10.7373 10.9375 10.5373C11.0375 10.3248 10.9875 10.1498 10.9125 9.99976C10.8375 9.84976 10.2125 8.32476 9.9625 7.69976C9.7125 7.09976 9.45 7.17476 9.2625 7.16226C9.075 7.16226 8.875 7.16226 8.6625 7.16226C8.45 7.16226 8.125 7.23726 7.8375 7.54976C7.5625 7.86226 6.7625 8.61226 6.7625 10.1373C6.7625 11.6623 7.875 13.1373 8.025 13.3373C8.175 13.5498 10.2125 16.6748 13.3125 18.0123C14.05 18.3373 14.625 18.5248 15.075 18.6623C15.8125 18.8998 16.4875 18.8623 17.025 18.7873C17.625 18.6998 18.8625 18.0373 19.1125 17.3123C19.375 16.5873 19.375 15.9748 19.2875 15.8373C19.2 15.6998 19.0125 15.6373 18.7 15.4873Z" fill="#7E1099"/>
</svg>
