<svg width="130" height="100" viewBox="0 0 130 100" fill="none" xmlns="http://www.w3.org/2000/svg">
<rect width="130" height="100" fill="#32104C"/>
<path d="M26.5 72.592V73.092H27H35.448H35.948V72.592V40.0807L43.216 72.7007L43.3031 73.092H43.704H50.872H51.2729L51.36 72.7007L58.628 40.0807V72.592V73.092H59.128H67.576H68.076V72.592V26.896V26.396H67.576H53.944H53.5359L53.4541 26.7959L47.2901 56.9578L41.1861 26.7968L41.1049 26.396H40.696H27H26.5V26.896V72.592ZM103.303 40.964H103.803V40.464C103.803 35.7616 102.767 31.9978 100.357 29.4112C97.9406 26.8176 94.2312 25.5 89.095 25.5C83.077 25.5 79.0517 27.5245 76.572 31.5959C74.1276 35.6092 73.235 41.538 73.235 49.232C73.235 57.1306 73.7892 63.3026 75.8208 67.5056C76.8448 69.624 78.2502 71.2569 80.1544 72.3542C82.0537 73.4487 84.4104 73.988 87.303 73.988C89.5064 73.988 91.4464 73.5932 93.1266 72.7151C94.4324 72.0327 95.5627 71.068 96.531 69.8017V72.592V73.092H97.031H103.815H104.315V72.592V47.952V47.452H103.815H88.903H88.403V47.952V54.736V55.236H88.903H94.483V59.408C94.483 64.0825 91.1648 66.204 89.287 66.204C88.0806 66.204 87.1483 65.817 86.4046 65.0936C85.6467 64.3564 85.0536 63.2387 84.6064 61.7299C83.7095 58.7038 83.451 54.2913 83.451 48.784C83.451 43.0941 83.9014 39.1761 84.8726 36.6942C85.3549 35.4618 85.9529 34.6172 86.6567 34.0792C87.3538 33.5464 88.1942 33.284 89.223 33.284C90.847 33.284 92.0158 34.2081 92.804 35.5986C93.5992 37.0014 93.971 38.8311 93.971 40.464V40.964H94.471H103.303Z" fill="white" stroke="#3737AE"/>
</svg>
