<svg width="80" height="50" viewBox="0 0 80 50" fill="none" xmlns="http://www.w3.org/2000/svg">
<path d="M0.891968 48V48.5H1.39197H9.83997H10.34V48V15.4887L17.6079 48.1087L17.6951 48.5H18.096H25.264H25.6648L25.752 48.1087L33.02 15.4887V48V48.5H33.52H41.968H42.468V48V2.30396V1.80396H41.968H28.336H27.9278L27.8461 2.20385L21.682 32.3658L15.578 2.20478L15.4969 1.80396H15.088H1.39197H0.891968V2.30396V48ZM77.695 16.372H78.195V15.872C78.195 11.1695 77.1585 7.4058 74.7488 4.81914C72.3326 2.22552 68.6232 0.907959 63.487 0.907959C57.469 0.907959 53.4436 2.93246 50.9639 7.00387C48.5196 11.0172 47.627 16.9459 47.627 24.64C47.627 32.5386 48.1812 38.7105 50.2128 42.9136C51.2368 45.032 52.6422 46.6649 54.5463 47.7622C56.4456 48.8567 58.8023 49.396 61.695 49.396C63.8984 49.396 65.8384 49.0012 67.5186 48.1231C68.8243 47.4407 69.9547 46.476 70.923 45.2097V48V48.5H71.423H78.207H78.707V48V23.36V22.86H78.207H63.295H62.795V23.36V30.144V30.644H63.295H68.875V34.816C68.875 39.4905 65.5567 41.612 63.679 41.612C62.4726 41.612 61.5403 41.2249 60.7966 40.5016C60.0387 39.7643 59.4456 38.6467 58.9984 37.1379C58.1014 34.1117 57.843 29.6992 57.843 24.192C57.843 18.502 58.2934 14.5841 59.2646 12.1022C59.7468 10.8697 60.3449 10.0251 61.0486 9.4872C61.7457 8.95431 62.5861 8.69196 63.615 8.69196C65.239 8.69196 66.4078 9.61604 67.196 11.0065C67.9912 12.4093 68.363 14.239 68.363 15.872V16.372H68.863H77.695Z" fill="white" stroke="#3737AE"/>
</svg>
